<svg width="164" height="50" viewBox="0 0 164 50" fill="none" xmlns="http://www.w3.org/2000/svg">
<path d="M72.2147 26.1055C70.4458 25.4729 69.1566 24.6977 68.3474 23.78C67.5452 22.8533 67.1442 21.7128 67.1442 20.3585C67.1442 18.826 67.6348 17.5608 68.6159 16.5628C69.6043 15.556 70.8862 15.0526 72.4618 15.0526C73.5361 15.0526 74.4922 15.311 75.3301 15.8277C76.1752 16.3445 76.827 17.0573 77.2853 17.9662C77.7508 18.875 77.9836 19.8685 77.9836 20.9466H75.9102C75.9102 19.7705 75.6094 18.8483 75.0079 18.18C74.4063 17.5028 73.5576 17.1643 72.4618 17.1643C71.4448 17.1643 70.6499 17.4449 70.0769 18.0063C69.5112 18.5587 69.2283 19.3294 69.2283 20.3184C69.2283 21.1114 69.4968 21.7841 70.034 22.3366C70.5783 22.8801 71.4986 23.379 72.7948 23.8334C74.0983 24.2879 75.1153 24.7913 75.8458 25.3437C76.5835 25.8872 77.1278 26.5243 77.4787 27.2549C77.8368 27.9855 78.0158 28.8454 78.0158 29.8344C78.0158 31.4115 77.5217 32.6767 76.5333 33.6301C75.545 34.5745 74.2236 35.0468 72.5693 35.0468C71.495 35.0468 70.4923 34.7928 69.5613 34.2849C68.6302 33.7682 67.9105 33.0643 67.402 32.1733C66.9007 31.2823 66.65 30.271 66.65 29.1394H68.7234C68.7234 30.3155 69.0707 31.2466 69.7654 31.9327C70.4673 32.6099 71.4019 32.9484 72.5693 32.9484C73.6578 32.9484 74.4922 32.6722 75.0723 32.1198C75.6524 31.5674 75.9425 30.8145 75.9425 29.8611C75.9425 28.9077 75.6739 28.1726 75.1368 27.6559C74.5996 27.1302 73.6256 26.6134 72.2147 26.1055Z" fill="#6667AB"/>
<path d="M84.6553 22.0692C85.5362 20.7238 86.6821 20.0511 88.0929 20.0511C90.5494 20.0511 91.7884 21.7752 91.8099 25.2234V34.7795H89.8225V25.21C89.8154 24.1676 89.622 23.3968 89.2424 22.8979C88.87 22.3989 88.2863 22.1494 87.4913 22.1494C86.8468 22.1494 86.281 22.3633 85.794 22.791C85.307 23.2186 84.9274 23.78 84.6553 24.475V34.7795H82.6679V14.2507H84.6553V22.0692Z" fill="#6667AB"/>
<path d="M96.5694 27.4153C96.5694 25.9986 96.7914 24.7244 97.2354 23.5929C97.6866 22.4613 98.3097 21.5881 99.1047 20.9733C99.9068 20.3585 100.82 20.0511 101.844 20.0511C103.427 20.0511 104.705 20.7327 105.679 22.096C106.66 23.4592 107.151 25.2724 107.151 27.5356V27.7093C107.151 29.1171 106.933 30.3823 106.496 31.505C106.066 32.6188 105.446 33.4875 104.637 34.1112C103.835 34.7349 102.911 35.0468 101.866 35.0468C100.29 35.0468 99.0116 34.3651 98.0304 33.0019C97.0564 31.6387 96.5694 29.8344 96.5694 27.589V27.4153ZM98.5675 27.7093C98.5675 29.3131 98.8648 30.6006 99.4592 31.5718C100.061 32.543 100.863 33.0286 101.866 33.0286C102.875 33.0286 103.678 32.5386 104.272 31.5585C104.866 30.5694 105.164 29.1884 105.164 27.4153C105.164 25.8293 104.859 24.5462 104.25 23.5661C103.649 22.5771 102.847 22.0826 101.844 22.0826C100.863 22.0826 100.072 22.5682 99.4699 23.5394C98.8683 24.5106 98.5675 25.9006 98.5675 27.7093Z" fill="#6667AB"/>
<path d="M117.572 22.537C117.271 22.4747 116.945 22.4435 116.594 22.4435C115.291 22.4435 114.406 23.134 113.941 24.5151V34.7795H111.953V20.3184H113.887L113.919 21.9891C114.571 20.6971 115.495 20.0511 116.691 20.0511C117.078 20.0511 117.371 20.1135 117.572 20.2382V22.537Z" fill="#6667AB"/>
<path d="M124.953 16.8168V20.3184H127.123V22.2296H124.953V31.1976C124.953 31.7768 125.049 32.2134 125.243 32.5074C125.436 32.7925 125.765 32.9351 126.231 32.9351C126.46 32.9351 126.775 32.8816 127.176 32.7747V34.7795C126.653 34.9577 126.145 35.0468 125.651 35.0468C124.763 35.0468 124.093 34.7126 123.642 34.0444C123.191 33.3761 122.965 32.4272 122.965 31.1976V22.2296H120.849V20.3184H122.965V16.8168H124.953Z" fill="#6667AB"/>
<path d="M133.923 34.7795H131.936V20.3184H133.923V34.7795ZM131.775 16.4826C131.775 16.0817 131.871 15.7431 132.065 15.4669C132.265 15.1907 132.559 15.0526 132.946 15.0526C133.332 15.0526 133.626 15.1907 133.826 15.4669C134.027 15.7431 134.127 16.0817 134.127 16.4826C134.127 16.8836 134.027 17.2177 133.826 17.485C133.626 17.7523 133.332 17.886 132.946 17.886C132.559 17.886 132.265 17.7523 132.065 17.485C131.871 17.2177 131.775 16.8836 131.775 16.4826Z" fill="#6667AB"/>
<path d="M140.401 34.7795V22.2296H138.564V20.3184H140.401V18.8349C140.401 17.2845 140.735 16.0861 141.401 15.2397C142.067 14.3932 143.008 13.97 144.226 13.97C144.684 13.97 145.139 14.0457 145.59 14.1972L145.483 16.202C145.146 16.1218 144.788 16.0817 144.409 16.0817C143.764 16.0817 143.266 16.3178 142.915 16.79C142.564 17.2534 142.389 17.9216 142.389 18.7948V20.3184H144.87V22.2296H142.389V34.7795H140.401Z" fill="#6667AB"/>
<path d="M153.186 31.1575L155.893 20.3184H158.02L153.347 37.0114C152.624 39.4171 151.474 40.62 149.898 40.62L149.522 40.5799L148.781 40.4062V38.4014L149.318 38.4549C149.992 38.4549 150.514 38.2856 150.887 37.947C151.266 37.6084 151.578 36.9892 151.821 36.0892L152.262 34.6191L148.115 20.3184H150.285L153.186 31.1575Z" fill="#6667AB"/>
<path d="M40 0H10C4.47715 0 0 4.47715 0 10V40C0 45.5228 4.47715 50 10 50H40C45.5228 50 50 45.5228 50 40V10C50 4.47715 45.5228 0 40 0Z" fill="#6667AB"/>
<path d="M24.3416 26.9374C21.372 26.0253 19.2079 24.9075 17.8494 23.5842C16.5028 22.2481 15.8296 20.6036 15.8296 18.6507C15.8296 16.441 16.6531 14.6166 18.3002 13.1777C19.9594 11.7259 22.1114 11 24.7564 11C26.5598 11 28.1648 11.3726 29.5715 12.1177C30.9902 12.8629 32.0842 13.8907 32.8537 15.2012C33.6352 16.5116 34.0259 17.9441 34.0259 19.4987H30.5453C30.5453 17.8028 30.0404 16.4731 29.0305 15.5095C28.0206 14.5331 26.5959 14.0449 24.7564 14.0449C23.0492 14.0449 21.7147 14.4496 20.7529 15.259C19.8031 16.0555 19.3282 17.1668 19.3282 18.5929C19.3282 19.7364 19.779 20.7064 20.6807 21.5029C21.5944 22.2866 23.1394 23.0061 25.3155 23.6613C27.5036 24.3165 29.2108 25.0424 30.4371 25.839C31.6755 26.6227 32.5892 27.5413 33.1783 28.5948C33.7794 29.6483 34.08 30.8881 34.08 32.3142C34.08 34.5882 33.2504 36.4125 31.5913 37.7872C29.9322 39.1491 27.714 39.83 24.9367 39.83C23.1333 39.83 21.4502 39.4638 19.8872 38.7315C18.3243 37.9864 17.116 36.9714 16.2624 35.6867C15.4208 34.4019 15 32.9437 15 31.312H18.4806C18.4806 33.0079 19.0637 34.3505 20.2299 35.3398C21.4081 36.3162 22.9771 36.8044 24.9367 36.8044C26.7642 36.8044 28.1648 36.4061 29.1387 35.6096C30.1125 34.813 30.5994 33.7274 30.5994 32.3527C30.5994 30.978 30.1486 29.9181 29.2469 29.1729C28.3452 28.4149 26.7101 27.6698 24.3416 26.9374Z" fill="white"/>
</svg>
